<mxfile host="Electron" modified="2023-08-06T07:09:33.870Z" agent="Mozilla/5.0 (Macintosh; Intel Mac OS X 10_15_7) AppleWebKit/537.36 (KHTML, like Gecko) draw.io/21.6.5 Chrome/114.0.5735.243 Electron/25.3.1 Safari/537.36" etag="XQnmkWQd0br7JO8IWQsE" version="21.6.5" type="device">
  <diagram name="Page-1" id="7CQ8QqhtwdtVZSlI4PK4">
    <mxGraphModel dx="1406" dy="730" grid="1" gridSize="10" guides="1" tooltips="1" connect="1" arrows="1" fold="1" page="1" pageScale="1" pageWidth="850" pageHeight="1100" math="0" shadow="0">
      <root>
        <mxCell id="0" />
        <mxCell id="1" parent="0" />
        <mxCell id="gYQf_hTgEn3ggT_Mbx2v-25" value="Private 2a" style="points=[[0,0],[0.25,0],[0.5,0],[0.75,0],[1,0],[1,0.25],[1,0.5],[1,0.75],[1,1],[0.75,1],[0.5,1],[0.25,1],[0,1],[0,0.75],[0,0.5],[0,0.25]];outlineConnect=0;gradientColor=none;html=1;whiteSpace=wrap;fontSize=12;fontStyle=0;container=1;pointerEvents=0;collapsible=0;recursiveResize=0;shape=mxgraph.aws4.group;grIcon=mxgraph.aws4.group_security_group;grStroke=0;strokeColor=#147EBA;fillColor=#E6F2F8;verticalAlign=top;align=left;spacingLeft=30;fontColor=#147EBA;dashed=0;" vertex="1" parent="1">
          <mxGeometry x="240" y="440" width="140" height="480" as="geometry" />
        </mxCell>
        <mxCell id="gYQf_hTgEn3ggT_Mbx2v-44" style="edgeStyle=orthogonalEdgeStyle;rounded=0;orthogonalLoop=1;jettySize=auto;html=1;" edge="1" parent="gYQf_hTgEn3ggT_Mbx2v-25" source="gYQf_hTgEn3ggT_Mbx2v-37" target="gYQf_hTgEn3ggT_Mbx2v-40">
          <mxGeometry relative="1" as="geometry" />
        </mxCell>
        <mxCell id="gYQf_hTgEn3ggT_Mbx2v-37" value="" style="sketch=0;outlineConnect=0;fontColor=#232F3E;gradientColor=none;fillColor=#2E27AD;strokeColor=none;dashed=0;verticalLabelPosition=bottom;verticalAlign=top;align=center;html=1;fontSize=12;fontStyle=0;aspect=fixed;pointerEvents=1;shape=mxgraph.aws4.elasticache_for_redis;" vertex="1" parent="gYQf_hTgEn3ggT_Mbx2v-25">
          <mxGeometry x="26" y="282" width="78" height="69" as="geometry" />
        </mxCell>
        <mxCell id="gYQf_hTgEn3ggT_Mbx2v-40" value="" style="sketch=0;outlineConnect=0;fontColor=#232F3E;gradientColor=none;fillColor=#2E27AD;strokeColor=none;dashed=0;verticalLabelPosition=bottom;verticalAlign=top;align=center;html=1;fontSize=12;fontStyle=0;aspect=fixed;pointerEvents=1;shape=mxgraph.aws4.rds_instance;" vertex="1" parent="gYQf_hTgEn3ggT_Mbx2v-25">
          <mxGeometry x="26" y="392" width="78" height="78" as="geometry" />
        </mxCell>
        <mxCell id="gYQf_hTgEn3ggT_Mbx2v-32" value="Public 2a" style="points=[[0,0],[0.25,0],[0.5,0],[0.75,0],[1,0],[1,0.25],[1,0.5],[1,0.75],[1,1],[0.75,1],[0.5,1],[0.25,1],[0,1],[0,0.75],[0,0.5],[0,0.25]];outlineConnect=0;gradientColor=none;html=1;whiteSpace=wrap;fontSize=12;fontStyle=0;container=1;pointerEvents=0;collapsible=0;recursiveResize=0;shape=mxgraph.aws4.group;grIcon=mxgraph.aws4.group_security_group;grStroke=0;strokeColor=#248814;fillColor=#E9F3E6;verticalAlign=top;align=left;spacingLeft=30;fontColor=#248814;dashed=0;" vertex="1" parent="1">
          <mxGeometry x="240" y="230" width="140" height="180" as="geometry" />
        </mxCell>
        <mxCell id="gYQf_hTgEn3ggT_Mbx2v-48" value="" style="outlineConnect=0;dashed=0;verticalLabelPosition=bottom;verticalAlign=top;align=center;html=1;shape=mxgraph.aws3.vpc_nat_gateway;fillColor=#F58534;gradientColor=none;" vertex="1" parent="gYQf_hTgEn3ggT_Mbx2v-32">
          <mxGeometry x="30.5" y="40" width="69" height="72" as="geometry" />
        </mxCell>
        <mxCell id="gYQf_hTgEn3ggT_Mbx2v-33" value="Public 2b" style="points=[[0,0],[0.25,0],[0.5,0],[0.75,0],[1,0],[1,0.25],[1,0.5],[1,0.75],[1,1],[0.75,1],[0.5,1],[0.25,1],[0,1],[0,0.75],[0,0.5],[0,0.25]];outlineConnect=0;gradientColor=none;html=1;whiteSpace=wrap;fontSize=12;fontStyle=0;container=1;pointerEvents=0;collapsible=0;recursiveResize=0;shape=mxgraph.aws4.group;grIcon=mxgraph.aws4.group_security_group;grStroke=0;strokeColor=#248814;fillColor=#E9F3E6;verticalAlign=top;align=left;spacingLeft=30;fontColor=#248814;dashed=0;" vertex="1" parent="1">
          <mxGeometry x="402.5" y="230" width="145" height="180" as="geometry" />
        </mxCell>
        <mxCell id="gYQf_hTgEn3ggT_Mbx2v-34" value="Public 2c" style="points=[[0,0],[0.25,0],[0.5,0],[0.75,0],[1,0],[1,0.25],[1,0.5],[1,0.75],[1,1],[0.75,1],[0.5,1],[0.25,1],[0,1],[0,0.75],[0,0.5],[0,0.25]];outlineConnect=0;gradientColor=none;html=1;whiteSpace=wrap;fontSize=12;fontStyle=0;container=1;pointerEvents=0;collapsible=0;recursiveResize=0;shape=mxgraph.aws4.group;grIcon=mxgraph.aws4.group_security_group;grStroke=0;strokeColor=#248814;fillColor=#E9F3E6;verticalAlign=top;align=left;spacingLeft=30;fontColor=#248814;dashed=0;" vertex="1" parent="1">
          <mxGeometry x="570" y="230" width="140" height="180" as="geometry" />
        </mxCell>
        <mxCell id="gYQf_hTgEn3ggT_Mbx2v-35" value="Private 2b" style="points=[[0,0],[0.25,0],[0.5,0],[0.75,0],[1,0],[1,0.25],[1,0.5],[1,0.75],[1,1],[0.75,1],[0.5,1],[0.25,1],[0,1],[0,0.75],[0,0.5],[0,0.25]];outlineConnect=0;gradientColor=none;html=1;whiteSpace=wrap;fontSize=12;fontStyle=0;container=1;pointerEvents=0;collapsible=0;recursiveResize=0;shape=mxgraph.aws4.group;grIcon=mxgraph.aws4.group_security_group;grStroke=0;strokeColor=#147EBA;fillColor=#E6F2F8;verticalAlign=top;align=left;spacingLeft=30;fontColor=#147EBA;dashed=0;" vertex="1" parent="1">
          <mxGeometry x="405" y="440" width="140" height="480" as="geometry" />
        </mxCell>
        <mxCell id="gYQf_hTgEn3ggT_Mbx2v-45" style="edgeStyle=orthogonalEdgeStyle;rounded=0;orthogonalLoop=1;jettySize=auto;html=1;" edge="1" parent="gYQf_hTgEn3ggT_Mbx2v-35" source="gYQf_hTgEn3ggT_Mbx2v-38" target="gYQf_hTgEn3ggT_Mbx2v-41">
          <mxGeometry relative="1" as="geometry" />
        </mxCell>
        <mxCell id="gYQf_hTgEn3ggT_Mbx2v-38" value="" style="sketch=0;outlineConnect=0;fontColor=#232F3E;gradientColor=none;fillColor=#2E27AD;strokeColor=none;dashed=0;verticalLabelPosition=bottom;verticalAlign=top;align=center;html=1;fontSize=12;fontStyle=0;aspect=fixed;pointerEvents=1;shape=mxgraph.aws4.elasticache_for_redis;" vertex="1" parent="gYQf_hTgEn3ggT_Mbx2v-35">
          <mxGeometry x="31" y="282" width="78" height="69" as="geometry" />
        </mxCell>
        <mxCell id="gYQf_hTgEn3ggT_Mbx2v-41" value="" style="sketch=0;outlineConnect=0;fontColor=#232F3E;gradientColor=none;fillColor=#2E27AD;strokeColor=none;dashed=0;verticalLabelPosition=bottom;verticalAlign=top;align=center;html=1;fontSize=12;fontStyle=0;aspect=fixed;pointerEvents=1;shape=mxgraph.aws4.rds_instance;" vertex="1" parent="gYQf_hTgEn3ggT_Mbx2v-35">
          <mxGeometry x="31" y="392" width="78" height="78" as="geometry" />
        </mxCell>
        <mxCell id="gYQf_hTgEn3ggT_Mbx2v-36" value="Private 2c" style="points=[[0,0],[0.25,0],[0.5,0],[0.75,0],[1,0],[1,0.25],[1,0.5],[1,0.75],[1,1],[0.75,1],[0.5,1],[0.25,1],[0,1],[0,0.75],[0,0.5],[0,0.25]];outlineConnect=0;gradientColor=none;html=1;whiteSpace=wrap;fontSize=12;fontStyle=0;container=1;pointerEvents=0;collapsible=0;recursiveResize=0;shape=mxgraph.aws4.group;grIcon=mxgraph.aws4.group_security_group;grStroke=0;strokeColor=#147EBA;fillColor=#E6F2F8;verticalAlign=top;align=left;spacingLeft=30;fontColor=#147EBA;dashed=0;" vertex="1" parent="1">
          <mxGeometry x="570" y="440" width="140" height="480" as="geometry" />
        </mxCell>
        <mxCell id="gYQf_hTgEn3ggT_Mbx2v-50" value="" style="sketch=0;outlineConnect=0;fontColor=#232F3E;gradientColor=none;fillColor=#2E27AD;strokeColor=none;dashed=0;verticalLabelPosition=bottom;verticalAlign=top;align=center;html=1;fontSize=12;fontStyle=0;aspect=fixed;pointerEvents=1;shape=mxgraph.aws4.elasticache_for_redis;opacity=50;" vertex="1" parent="gYQf_hTgEn3ggT_Mbx2v-36">
          <mxGeometry x="20" y="282" width="78" height="69" as="geometry" />
        </mxCell>
        <mxCell id="gYQf_hTgEn3ggT_Mbx2v-51" value="" style="sketch=0;outlineConnect=0;fontColor=#232F3E;gradientColor=none;fillColor=#2E27AD;strokeColor=none;dashed=0;verticalLabelPosition=bottom;verticalAlign=top;align=center;html=1;fontSize=12;fontStyle=0;aspect=fixed;pointerEvents=1;shape=mxgraph.aws4.rds_instance;opacity=50;" vertex="1" parent="gYQf_hTgEn3ggT_Mbx2v-36">
          <mxGeometry x="20" y="392" width="78" height="78" as="geometry" />
        </mxCell>
        <mxCell id="gYQf_hTgEn3ggT_Mbx2v-39" style="edgeStyle=orthogonalEdgeStyle;rounded=0;orthogonalLoop=1;jettySize=auto;html=1;startArrow=classic;startFill=1;" edge="1" parent="1" source="gYQf_hTgEn3ggT_Mbx2v-37" target="gYQf_hTgEn3ggT_Mbx2v-38">
          <mxGeometry relative="1" as="geometry" />
        </mxCell>
        <mxCell id="gYQf_hTgEn3ggT_Mbx2v-42" style="edgeStyle=orthogonalEdgeStyle;rounded=0;orthogonalLoop=1;jettySize=auto;html=1;" edge="1" parent="1" source="gYQf_hTgEn3ggT_Mbx2v-40" target="gYQf_hTgEn3ggT_Mbx2v-41">
          <mxGeometry relative="1" as="geometry" />
        </mxCell>
        <mxCell id="gYQf_hTgEn3ggT_Mbx2v-47" value="Auto Scaling group" style="points=[[0,0],[0.25,0],[0.5,0],[0.75,0],[1,0],[1,0.25],[1,0.5],[1,0.75],[1,1],[0.75,1],[0.5,1],[0.25,1],[0,1],[0,0.75],[0,0.5],[0,0.25]];outlineConnect=0;gradientColor=none;html=1;whiteSpace=wrap;fontSize=12;fontStyle=0;container=1;pointerEvents=0;collapsible=0;recursiveResize=0;shape=mxgraph.aws4.groupCenter;grIcon=mxgraph.aws4.group_auto_scaling_group;grStroke=1;strokeColor=#D86613;fillColor=none;verticalAlign=top;align=center;fontColor=#D86613;dashed=1;spacingTop=25;" vertex="1" parent="1">
          <mxGeometry x="250" y="470" width="450" height="190" as="geometry" />
        </mxCell>
        <mxCell id="gYQf_hTgEn3ggT_Mbx2v-8" value="node" style="sketch=0;points=[[0,0,0],[0.25,0,0],[0.5,0,0],[0.75,0,0],[1,0,0],[0,1,0],[0.25,1,0],[0.5,1,0],[0.75,1,0],[1,1,0],[0,0.25,0],[0,0.5,0],[0,0.75,0],[1,0.25,0],[1,0.5,0],[1,0.75,0]];outlineConnect=0;fontColor=#232F3E;gradientColor=#F78E04;gradientDirection=north;fillColor=#D05C17;strokeColor=#ffffff;dashed=0;verticalLabelPosition=bottom;verticalAlign=top;align=center;html=1;fontSize=12;fontStyle=0;aspect=fixed;shape=mxgraph.aws4.resourceIcon;resIcon=mxgraph.aws4.ec2;" vertex="1" parent="gYQf_hTgEn3ggT_Mbx2v-47">
          <mxGeometry x="16" y="56" width="78" height="78" as="geometry" />
        </mxCell>
        <mxCell id="gYQf_hTgEn3ggT_Mbx2v-10" value="node" style="sketch=0;points=[[0,0,0],[0.25,0,0],[0.5,0,0],[0.75,0,0],[1,0,0],[0,1,0],[0.25,1,0],[0.5,1,0],[0.75,1,0],[1,1,0],[0,0.25,0],[0,0.5,0],[0,0.75,0],[1,0.25,0],[1,0.5,0],[1,0.75,0]];outlineConnect=0;fontColor=#232F3E;gradientColor=#F78E04;gradientDirection=north;fillColor=#D05C17;strokeColor=#ffffff;dashed=0;verticalLabelPosition=bottom;verticalAlign=top;align=center;html=1;fontSize=12;fontStyle=0;aspect=fixed;shape=mxgraph.aws4.resourceIcon;resIcon=mxgraph.aws4.ec2;" vertex="1" parent="gYQf_hTgEn3ggT_Mbx2v-47">
          <mxGeometry x="186" y="56" width="78" height="78" as="geometry" />
        </mxCell>
        <mxCell id="gYQf_hTgEn3ggT_Mbx2v-49" value="node" style="sketch=0;points=[[0,0,0],[0.25,0,0],[0.5,0,0],[0.75,0,0],[1,0,0],[0,1,0],[0.25,1,0],[0.5,1,0],[0.75,1,0],[1,1,0],[0,0.25,0],[0,0.5,0],[0,0.75,0],[1,0.25,0],[1,0.5,0],[1,0.75,0]];outlineConnect=0;fontColor=#232F3E;gradientColor=#F78E04;gradientDirection=north;fillColor=#D05C17;strokeColor=#ffffff;dashed=0;verticalLabelPosition=bottom;verticalAlign=top;align=center;html=1;fontSize=12;fontStyle=0;aspect=fixed;shape=mxgraph.aws4.resourceIcon;resIcon=mxgraph.aws4.ec2;opacity=50;" vertex="1" parent="gYQf_hTgEn3ggT_Mbx2v-47">
          <mxGeometry x="340" y="56" width="78" height="78" as="geometry" />
        </mxCell>
        <mxCell id="gYQf_hTgEn3ggT_Mbx2v-43" style="edgeStyle=orthogonalEdgeStyle;rounded=0;orthogonalLoop=1;jettySize=auto;html=1;" edge="1" parent="1" source="gYQf_hTgEn3ggT_Mbx2v-8" target="gYQf_hTgEn3ggT_Mbx2v-37">
          <mxGeometry relative="1" as="geometry" />
        </mxCell>
        <mxCell id="gYQf_hTgEn3ggT_Mbx2v-46" style="edgeStyle=orthogonalEdgeStyle;rounded=0;orthogonalLoop=1;jettySize=auto;html=1;" edge="1" parent="1" source="gYQf_hTgEn3ggT_Mbx2v-10" target="gYQf_hTgEn3ggT_Mbx2v-38">
          <mxGeometry relative="1" as="geometry" />
        </mxCell>
        <mxCell id="gYQf_hTgEn3ggT_Mbx2v-52" value="VPC" style="points=[[0,0],[0.25,0],[0.5,0],[0.75,0],[1,0],[1,0.25],[1,0.5],[1,0.75],[1,1],[0.75,1],[0.5,1],[0.25,1],[0,1],[0,0.75],[0,0.5],[0,0.25]];outlineConnect=0;gradientColor=none;html=1;whiteSpace=wrap;fontSize=12;fontStyle=0;container=1;pointerEvents=0;collapsible=0;recursiveResize=0;shape=mxgraph.aws4.group;grIcon=mxgraph.aws4.group_vpc;strokeColor=#248814;fillColor=none;verticalAlign=top;align=left;spacingLeft=30;fontColor=#AAB7B8;dashed=0;" vertex="1" parent="1">
          <mxGeometry x="200" y="110" width="540" height="840" as="geometry" />
        </mxCell>
        <mxCell id="gYQf_hTgEn3ggT_Mbx2v-58" value="" style="outlineConnect=0;dashed=0;verticalLabelPosition=bottom;verticalAlign=top;align=center;html=1;shape=mxgraph.aws3.vpc_nat_gateway;fillColor=#F58534;gradientColor=none;opacity=50;" vertex="1" parent="gYQf_hTgEn3ggT_Mbx2v-52">
          <mxGeometry x="240.5" y="160" width="69" height="72" as="geometry" />
        </mxCell>
        <mxCell id="gYQf_hTgEn3ggT_Mbx2v-59" value="" style="outlineConnect=0;dashed=0;verticalLabelPosition=bottom;verticalAlign=top;align=center;html=1;shape=mxgraph.aws3.vpc_nat_gateway;fillColor=#F58534;gradientColor=none;opacity=50;" vertex="1" parent="gYQf_hTgEn3ggT_Mbx2v-52">
          <mxGeometry x="399" y="160" width="69" height="72" as="geometry" />
        </mxCell>
        <mxCell id="gYQf_hTgEn3ggT_Mbx2v-53" value="" style="outlineConnect=0;dashed=0;verticalLabelPosition=bottom;verticalAlign=top;align=center;html=1;shape=mxgraph.aws3.internet_gateway;fillColor=#F58534;gradientColor=none;" vertex="1" parent="1">
          <mxGeometry x="170" y="370" width="69" height="72" as="geometry" />
        </mxCell>
        <mxCell id="gYQf_hTgEn3ggT_Mbx2v-55" style="edgeStyle=orthogonalEdgeStyle;rounded=0;orthogonalLoop=1;jettySize=auto;html=1;" edge="1" parent="1" source="gYQf_hTgEn3ggT_Mbx2v-54" target="gYQf_hTgEn3ggT_Mbx2v-10">
          <mxGeometry relative="1" as="geometry" />
        </mxCell>
        <mxCell id="gYQf_hTgEn3ggT_Mbx2v-56" style="edgeStyle=orthogonalEdgeStyle;rounded=0;orthogonalLoop=1;jettySize=auto;html=1;" edge="1" parent="1" source="gYQf_hTgEn3ggT_Mbx2v-54" target="gYQf_hTgEn3ggT_Mbx2v-49">
          <mxGeometry relative="1" as="geometry" />
        </mxCell>
        <mxCell id="gYQf_hTgEn3ggT_Mbx2v-57" style="edgeStyle=orthogonalEdgeStyle;rounded=0;orthogonalLoop=1;jettySize=auto;html=1;entryX=0.5;entryY=0;entryDx=0;entryDy=0;entryPerimeter=0;" edge="1" parent="1" source="gYQf_hTgEn3ggT_Mbx2v-54" target="gYQf_hTgEn3ggT_Mbx2v-8">
          <mxGeometry relative="1" as="geometry" />
        </mxCell>
        <mxCell id="gYQf_hTgEn3ggT_Mbx2v-54" value="" style="outlineConnect=0;dashed=0;verticalLabelPosition=bottom;verticalAlign=top;align=center;html=1;shape=mxgraph.aws3.application_load_balancer;fillColor=#F58534;gradientColor=none;" vertex="1" parent="1">
          <mxGeometry x="440.5" y="140" width="69" height="72" as="geometry" />
        </mxCell>
        <mxCell id="gYQf_hTgEn3ggT_Mbx2v-60" value="AZ1" style="fillColor=none;strokeColor=#147EBA;dashed=1;verticalAlign=top;fontStyle=0;fontColor=#147EBA;whiteSpace=wrap;html=1;" vertex="1" parent="1">
          <mxGeometry x="180" y="82" width="210" height="898" as="geometry" />
        </mxCell>
        <mxCell id="gYQf_hTgEn3ggT_Mbx2v-62" value="AZ2" style="fillColor=none;strokeColor=#147EBA;dashed=1;verticalAlign=top;fontStyle=0;fontColor=#147EBA;whiteSpace=wrap;html=1;" vertex="1" parent="1">
          <mxGeometry x="390" y="80" width="170" height="900" as="geometry" />
        </mxCell>
        <mxCell id="gYQf_hTgEn3ggT_Mbx2v-63" value="AZ3" style="fillColor=none;strokeColor=#147EBA;dashed=1;verticalAlign=top;fontStyle=0;fontColor=#147EBA;whiteSpace=wrap;html=1;" vertex="1" parent="1">
          <mxGeometry x="560" y="80" width="210" height="900" as="geometry" />
        </mxCell>
        <mxCell id="gYQf_hTgEn3ggT_Mbx2v-64" value="Region" style="points=[[0,0],[0.25,0],[0.5,0],[0.75,0],[1,0],[1,0.25],[1,0.5],[1,0.75],[1,1],[0.75,1],[0.5,1],[0.25,1],[0,1],[0,0.75],[0,0.5],[0,0.25]];outlineConnect=0;gradientColor=none;html=1;whiteSpace=wrap;fontSize=12;fontStyle=0;container=1;pointerEvents=0;collapsible=0;recursiveResize=0;shape=mxgraph.aws4.group;grIcon=mxgraph.aws4.group_region;strokeColor=#147EBA;fillColor=none;verticalAlign=top;align=left;spacingLeft=30;fontColor=#147EBA;dashed=1;" vertex="1" parent="1">
          <mxGeometry x="140" y="60" width="660" height="950" as="geometry" />
        </mxCell>
        <mxCell id="gYQf_hTgEn3ggT_Mbx2v-65" value="AWS Cloud" style="points=[[0,0],[0.25,0],[0.5,0],[0.75,0],[1,0],[1,0.25],[1,0.5],[1,0.75],[1,1],[0.75,1],[0.5,1],[0.25,1],[0,1],[0,0.75],[0,0.5],[0,0.25]];outlineConnect=0;gradientColor=none;html=1;whiteSpace=wrap;fontSize=12;fontStyle=0;container=1;pointerEvents=0;collapsible=0;recursiveResize=0;shape=mxgraph.aws4.group;grIcon=mxgraph.aws4.group_aws_cloud_alt;strokeColor=#232F3E;fillColor=none;verticalAlign=top;align=left;spacingLeft=30;fontColor=#232F3E;dashed=0;" vertex="1" parent="1">
          <mxGeometry x="109" y="30" width="711" height="1010" as="geometry" />
        </mxCell>
      </root>
    </mxGraphModel>
  </diagram>
</mxfile>
